PathFileType	4	(X/Y/Z)	RBDS06static.trc
DataRate	CameraRate	NumFrames	NumMarkers	Units	OrigDataRate	OrigDataStartFrame	OrigNumFrames
150.000000	150.000000	4	48	mm	150.000000	56	150
Frame#	Time	L.Ankle			L.Ankle.Medial			L.ASIS			L.GTR			L.Heel.Bottom			L.Heel.Lateral			L.Heel.Top			L.HF			L.Iliac.Crest			L.Knee			L.Knee.Medial			L.MT1			L.MT2			L.MT5			L.PSIS			L.Shank.Bottom.Lateral			L.Shank.Bottom.Medial			L.Shank.Top.Lateral			L.Shank.Top.Medial			L.Thigh.Bottom.Lateral			L.Thigh.Bottom.Medial			L.Thigh.Top.Lateral			L.Thigh.Top.Medial			L.TT			R.Ankle			R.Ankle.Medial			R.ASIS			R.GTR			R.Heel.Bottom			R.Heel.Lateral			R.Heel.Top			R.HF			R.Iliac.Crest			R.Knee			R.Knee.Medial			R.MT1			R.MT2			R.MT5			R.PSIS			R.Shank.Bottom.Lateral			R.Shank.Bottom.Medial			R.Shank.Top.Lateral			R.Shank.Top.Medial			R.Thigh.Bottom.Lateral			R.Thigh.Bottom.Medial			R.Thigh.Top.Lateral			R.Thigh.Top.Medial			R.TT			
		X1	Y1	Z1	X2	Y2	Z2	X3	Y3	Z3	X4	Y4	Z4	X5	Y5	Z5	X6	Y6	Z6	X7	Y7	Z7	X8	Y8	Z8	X9	Y9	Z9	X10	Y10	Z10	X11	Y11	Z11	X12	Y12	Z12	X13	Y13	Z13	X14	Y14	Z14	X15	Y15	Z15	X16	Y16	Z16	X17	Y17	Z17	X18	Y18	Z18	X19	Y19	Z19	X20	Y20	Z20	X21	Y21	Z21	X22	Y22	Z22	X23	Y23	Z23	X24	Y24	Z24	X25	Y25	Z25	X26	Y26	Z26	X27	Y27	Z27	X28	Y28	Z28	X29	Y29	Z29	X30	Y30	Z30	X31	Y31	Z31	X32	Y32	Z32	X33	Y33	Z33	X34	Y34	Z34	X35	Y35	Z35	X36	Y36	Z36	X37	Y37	Z37	X38	Y38	Z38	X39	Y39	Z39	X40	Y40	Z40	X41	Y41	Z41	X42	Y42	Z42	X43	Y43	Z43	X44	Y44	Z44	X45	Y45	Z45	X46	Y46	Z46	X47	Y47	Z47	X48	Y48	Z48	

57	0.3733333333333334	708.8522338867188	108.8492126464844	1042.856811523438	730.2149047851563	121.0322036743164	1128.573974609375	855.490966796875	1036.5869140625	1105.859252929688	766.1573486328125	948.594970703125	1049.394653320313	638.0707397460938	43.22366714477539	1078.515502929688	672.6155395507813	64.79141998291016	1038.647827148438	649.5120239257813	93.13134002685547	1082.044677734375	718.6920166015625	487.1341552734375	1039.037109375	764.8753662109375	1106.658935546875	1066.287475585938	725.2732543945313	558.0968017578125	1042.967041015625	717.7582397460938	535.5859375	1175.072998046875	864.6702270507813	63.78634643554688	1122.565063476563	878.86669921875	65.21865844726563	1077.669799804688	831.7420043945313	49.60218811035156	1012.378784179688	686.2957763671875	1074.810913085938	1177.846923828125	699.8201904296875	194.1821746826172	1038.625	660.7882080078125	192.4219360351563	1076.415771484375	689.5984497070313	273.4994506835938	1030.953002929688	652.42138671875	273.2016906738281	1069.711791992188	728.8602905273438	640.4822387695313	1033.41796875	671.4691772460938	635.7967529296875	1078.279174804688	715.2557983398438	750.348388671875	1033.160278320313	665.8639526367188	746.3272705078125	1080.767578125	777.0359497070313	456.5982666015625	1092.571044921875	700.818115234375	115.7759399414063	1412.723266601563	723.9982299804688	122.5938110351563	1325.021118164063	855.5902099609375	1036.418090820313	1341.296264648438	776.9622802734375	940.548828125	1393.05810546875	631.7175903320313	42.5655403137207	1368.839233398438	661.0462646484375	65.45072174072266	1410.499877929688	641.4423828125	91.96164703369141	1367.590087890625	722.4641723632813	491.4234924316406	1402.981567382813	786.1323852539063	1094.64208984375	1386.449584960938	731.1714477539063	550.8961791992188	1399.701416015625	730.1400756835938	533.9088134765625	1270.378295898438	857.4190673828125	66.27752685546875	1331.531616210938	859.71435546875	72.31527709960938	1370.787475585938	819.3157348632813	49.21406173706055	1443.651245117188	689.6494750976563	1072.9892578125	1275.579956054688	685.35595703125	206.8703765869141	1412.83349609375	650.8245849609375	207.1293640136719	1374.58154296875	677.5858154296875	291.3340148925781	1417.39599609375	642.7825317382813	287.5133056640625	1376.838256835938	745.4494018554688	647.3126831054688	1413.774536132813	680.789306640625	650.2984619140625	1377.379028320313	743.7806396484375	758.0397338867188	1420.41748046875	684.11181640625	760.5346069335938	1382.542358398438	776.87548828125	457.5377807617188	1356.671508789063	
58	0.38	708.85693359375	108.8489227294922	1042.852783203125	730.225830078125	121.0402297973633	1128.585693359375	855.5239868164063	1036.587524414063	1105.867065429688	766.1881713867188	948.5848388671875	1049.37548828125	638.064697265625	43.22832870483398	1078.5126953125	672.6171264648438	64.802734375	1038.6533203125	649.5182495117188	93.13831329345703	1082.041625976563	718.7022705078125	487.1390686035156	1039.053100585938	764.9131469726563	1106.658081054688	1066.291381835938	725.296875	558.1055297851563	1042.972412109375	717.759521484375	535.5919799804688	1175.08447265625	864.6655883789063	63.78911209106445	1122.560791015625	878.86572265625	65.21395111083984	1077.685302734375	831.7444458007813	49.60179138183594	1012.385070800781	686.3355712890625	1074.8173828125	1177.85693359375	699.828125	194.1968841552734	1038.614990234375	660.7901000976563	192.4462432861328	1076.411010742188	689.5908813476563	273.5071716308594	1030.949829101563	652.4236450195313	273.2119140625	1069.711181640625	728.8837890625	640.4832153320313	1033.427368164063	671.48779296875	635.80322265625	1078.2841796875	715.2782592773438	750.3531494140625	1033.159790039063	665.8806762695313	746.3241577148438	1080.765502929688	777.0579223632813	456.6077270507813	1092.57177734375	700.8231811523438	115.7764739990234	1412.704833984375	723.9929809570313	122.5968322753906	1325.026611328125	855.6219482421875	1036.41748046875	1341.298706054688	776.9934692382813	940.5458374023438	1393.060791015625	631.7255249023438	42.56591415405273	1368.844970703125	661.0516967773438	65.45285034179688	1410.503173828125	641.4403686523438	91.97293853759766	1367.590209960938	722.4739379882813	491.4305725097656	1402.984985351563	786.1718139648438	1094.622436523438	1386.456420898438	731.1834106445313	550.8956909179688	1399.714477539063	730.1798706054688	533.9098510742188	1270.375244140625	857.4248046875	66.27862548828125	1331.522338867188	859.7091064453125	72.31032562255859	1370.791259765625	819.320068359375	49.21101379394531	1443.641967773438	689.6902465820313	1072.999877929688	1275.591186523438	685.3558959960938	206.8637390136719	1412.82568359375	650.826416015625	207.12939453125	1374.59423828125	677.5975341796875	291.3341979980469	1417.398559570313	642.7800903320313	287.5181579589844	1376.840698242188	745.4661865234375	647.314208984375	1413.776611328125	680.8058471679688	650.3043823242188	1377.377563476563	743.7980346679688	758.040771484375	1420.42138671875	684.1342163085938	760.537109375	1382.543090820313	776.8828735351563	457.5339660644531	1356.670654296875	
59	0.3866666666666667	708.8546142578125	108.8430557250977	1042.855834960938	730.2374877929688	121.0447235107422	1128.582397460938	855.56787109375	1036.5732421875	1105.875244140625	766.2178955078125	948.6012573242188	1049.397705078125	638.0698852539063	43.23164367675781	1078.502685546875	672.614501953125	64.80062866210938	1038.648071289063	649.5142211914063	93.13954162597656	1082.040283203125	718.7035522460938	487.1257934570313	1039.054321289063	764.9461669921875	1106.66552734375	1066.291625976563	725.3109741210938	558.1079711914063	1042.974487304688	717.7833862304688	535.584716796875	1175.076171875	864.67138671875	63.78378295898438	1122.558959960938	878.8701171875	65.21872711181641	1077.671630859375	831.7481079101563	49.59925079345703	1012.38427734375	686.3580932617188	1074.823120117188	1177.866821289063	699.8297729492188	194.1956634521484	1038.615478515625	660.7905883789063	192.4386444091797	1076.40478515625	689.6007080078125	273.5062866210938	1030.950927734375	652.4237670898438	273.2189331054688	1069.699096679688	728.9046020507813	640.4823608398438	1033.428588867188	671.5025634765625	635.8098754882813	1078.282104492188	715.3006591796875	750.3597412109375	1033.169311523438	665.8995971679688	746.3238525390625	1080.779174804688	777.0587768554688	456.6051025390625	1092.570678710938	700.8255615234375	115.7864151000977	1412.710083007813	723.994384765625	122.5928039550781	1325.0224609375	855.664306640625	1036.411987304688	1341.300415039063	777.0181884765625	940.5504760742188	1393.0771484375	631.7223510742188	42.56040191650391	1368.841186523438	661.0479125976563	65.44342803955078	1410.503662109375	641.442138671875	91.97173309326172	1367.576416015625	722.4799194335938	491.4325866699219	1402.992065429688	786.1951293945313	1094.623291015625	1386.461791992188	731.1958618164063	550.8932495117188	1399.708374023438	730.1859130859375	533.9151000976563	1270.377319335938	857.419677734375	66.28367614746094	1331.524047851563	859.7112426757813	72.31348419189453	1370.785278320313	819.318603515625	49.21531295776367	1443.633422851563	689.7289428710938	1072.989990234375	1275.59619140625	685.3611450195313	206.8681335449219	1412.829956054688	650.826416015625	207.1368103027344	1374.588012695313	677.59814453125	291.3364868164063	1417.394409179688	642.78857421875	287.5130310058594	1376.832397460938	745.4796752929688	647.311279296875	1413.776000976563	680.8265991210938	650.3065185546875	1377.388916015625	743.8220825195313	758.0389404296875	1420.4326171875	684.1502075195313	760.5366821289063	1382.54443359375	776.8949584960938	457.5372924804688	1356.664428710938	
60	0.3933333333333334	708.8516845703125	108.8436050415039	1042.851684570313	730.2247314453125	121.0453186035156	1128.577880859375	855.59228515625	1036.57275390625	1105.874877929688	766.2466430664063	948.5802612304688	1049.390747070313	638.0726928710938	43.23017501831055	1078.5029296875	672.6105346679688	64.80323028564453	1038.64794921875	649.515625	93.13967895507813	1082.0283203125	718.7149658203125	487.1351623535156	1039.065063476563	764.970458984375	1106.651733398438	1066.307983398438	725.3173217773438	558.11376953125	1042.97998046875	717.7916870117188	535.5933227539063	1175.087768554688	864.674072265625	63.78274154663086	1122.55810546875	878.8607788085938	65.20985412597656	1077.666137695313	831.7455444335938	49.59677886962891	1012.38916015625	686.390869140625	1074.824096679688	1177.870361328125	699.8355102539063	194.1990203857422	1038.615844726563	660.790283203125	192.4429321289063	1076.408325195313	689.6026611328125	273.5134887695313	1030.947387695313	652.4337768554688	273.2152709960938	1069.715454101563	728.9172973632813	640.484130859375	1033.433959960938	671.519287109375	635.806396484375	1078.287231445313	715.3274536132813	750.3532104492188	1033.153076171875	665.9200439453125	746.3272094726563	1080.772705078125	777.0687255859375	456.6080932617188	1092.578979492188	700.832763671875	115.7914581298828	1412.724487304688	723.9894409179688	122.5925750732422	1325.018188476563	855.6928100585938	1036.399780273438	1341.30517578125	777.0588989257813	940.5460205078125	1393.076416015625	631.7227783203125	42.5605354309082	1368.836059570313	661.04736328125	65.45160675048828	1410.49755859375	641.4334716796875	91.97470855712891	1367.574829101563	722.5038452148438	491.4279174804688	1402.984985351563	786.235107421875	1094.623046875	1386.4580078125	731.2094116210938	550.924560546875	1399.692626953125	730.2039184570313	533.9071044921875	1270.38671875	857.4151000976563	66.27149963378906	1331.52099609375	859.7074584960938	72.31264495849609	1370.798583984375	819.317626953125	49.21194458007813	1443.640625	689.770751953125	1072.997314453125	1275.59716796875	685.3579711914063	206.864501953125	1412.822998046875	650.8342895507813	207.1421813964844	1374.587158203125	677.6060180664063	291.3377685546875	1417.391479492188	642.796875	287.5143737792969	1376.83349609375	745.4989624023438	647.3106689453125	1413.7822265625	680.8433837890625	650.3093872070313	1377.381225585938	743.8424682617188	758.0352783203125	1420.427856445313	684.172607421875	760.5349731445313	1382.55517578125	776.9056396484375	457.5382995605469	1356.673461914063	
